Coordinates
version=1
nRows=38
nColumns=12
inDegrees=yes

Units are S.I. units (second, meters, Newtons, ...)
Angles are in degrees

endheader
time	SC_y	SC_z	SC_x	AC_y	AC_z	AC_x	GH_y	GH_z	GH_yy	EL_x	PS_y
       0.0              -43.73          24.78          54.56          41.64          5.908          5.086          37.96          65.17         -82.53          46.42          38.74
  0.008675              -43.73          24.77          54.56          41.64          5.906          5.087          37.94          65.17         -82.52          46.44          38.74
   0.01735              -43.73          24.77          54.55          41.64          5.905          5.087          37.91          65.16         -82.51          46.45          38.75
   0.02603              -43.72          24.77          54.55          41.64          5.903          5.088          37.88          65.16          -82.5          46.47          38.75
    0.0347              -43.72          24.76          54.55          41.64          5.901          5.088          37.85          65.16         -82.48          46.48          38.76
   0.04338              -43.71          24.76          54.55          41.64            5.9          5.088          37.81          65.16         -82.47           46.5          38.77
   0.05205              -43.71          24.75          54.54          41.64          5.898          5.089          37.78          65.15         -82.45          46.52          38.77
   0.06073               -43.7          24.74          54.54          41.64          5.896          5.089          37.74          65.15         -82.44          46.54          38.78
    0.0694               -43.7          24.74          54.54          41.64          5.893           5.09           37.7          65.14         -82.42          46.56          38.79
   0.07808              -43.69          24.73          54.54          41.64          5.891          5.091          37.65          65.14          -82.4          46.58          38.79
   0.08675              -43.69          24.72          54.53          41.64          5.889          5.091           37.6          65.14         -82.38          46.61           38.8
   0.09543              -43.68          24.72          54.53          41.64          5.886          5.092          37.55          65.13         -82.36          46.63          38.81
    0.1041              -43.67          24.71          54.53          41.64          5.883          5.093           37.5          65.13         -82.33          46.66          38.82
    0.1128              -43.67           24.7          54.52          41.64           5.88          5.094          37.44          65.12         -82.31          46.69          38.83
    0.1215              -43.66          24.69          54.52          41.64          5.876          5.094          37.37          65.11         -82.28          46.72          38.84
    0.1301              -43.65          24.68          54.51          41.64          5.873          5.095           37.3          65.11         -82.25          46.76          38.86
    0.1388              -43.64          24.67          54.51          41.64          5.868          5.096          37.23           65.1         -82.22           46.8          38.87
    0.1475              -43.63          24.65           54.5          41.64          5.864          5.098          37.14          65.09         -82.18          46.84          38.89
    0.1562              -43.62          24.64           54.5          41.64          5.859          5.099          37.05          65.08         -82.14          46.89           38.9
    0.1648              -43.61          24.63          54.49          41.64          5.854            5.1          36.95          65.08          -82.1          46.94          38.92
    0.1735              -43.59          24.61          54.48          41.64          5.848          5.102          36.85          65.07         -82.05           47.0          38.94
    0.1822              -43.58          24.59          54.47          41.65          5.842          5.103          36.73          65.05          -82.0          47.06          38.96
    0.1909              -43.56          24.57          54.46          41.65          5.835          5.105          36.59          65.04         -81.94          47.13          38.99
    0.1995              -43.54          24.55          54.45          41.65          5.827          5.107          36.45          65.03         -81.88           47.2          39.01
    0.2082              -43.52          24.52          54.44          41.65          5.818          5.109          36.28          65.01         -81.81          47.29          39.04
    0.2169               -43.5           24.5          54.43          41.65          5.808          5.112           36.1           65.0         -81.73          47.38          39.07
    0.2256              -43.47          24.47          54.42          41.65          5.798          5.115           35.9          64.98         -81.64          47.48          39.11
    0.2342              -43.44          24.43           54.4          41.65          5.785          5.118          35.67          64.95         -81.54           47.6          39.15
    0.2429              -43.41          24.39          54.38          41.66          5.772          5.121          35.41          64.93         -81.43          47.74           39.2
    0.2516              -43.37          24.35          54.36          41.66          5.756          5.125          35.12           64.9          -81.3          47.89          39.25
    0.2603              -43.33           24.3          54.34          41.66          5.738           5.13          34.78          64.87         -81.15          48.06          39.31
    0.2689              -43.28          24.24          54.31          41.66          5.717          5.135           34.4          64.84         -80.99          48.26          39.38
    0.2776              -43.23          24.17          54.28          41.67          5.694          5.141          33.95          64.79         -80.79          48.49          39.46
    0.2863              -43.16          24.09          54.25          41.67          5.666          5.149          33.43          64.75         -80.57          48.75          39.56
     0.295              -43.09           24.0           54.2          41.68          5.634          5.157          32.83          64.69         -80.31          49.07          39.67
    0.3036               -43.0          23.89          54.16          41.68          5.596          5.167          32.12          64.62          -80.0          49.43           39.8
    0.3123              -42.89          23.76           54.1          41.69          5.551          5.178          31.27          64.54         -79.63          49.87          39.95
     0.321              -42.76          23.61          54.03           41.7          5.497          5.192          30.25          64.45         -79.19          50.39          40.13
